<?xml version="1.0" encoding="utf-8"?>
<svg version="1.1" id="Layer_1" xmlns="http://www.w3.org/2000/svg" xmlns:xlink="http://www.w3.org/1999/xlink" x="0px" y="0px"
	 viewBox="0 0 22.6 26" style="enable-background:new 0 0 22.6 26;" xml:space="preserve">
<path fill="currentColor" d="M20.1,6c-0.1-0.5-0.5-0.9-1-0.9h-1.8c-0.5-2.9-3-5.1-6.1-5.1c-3,0-5.5,2.3-6,5.1H3.5C3,5.1,2.6,5.5,2.5,6
	L0,24.9c0,0.3,0.1,0.6,0.2,0.8C0.4,25.9,0.7,26,1,26h20.6c0.3,0,0.6-0.1,0.8-0.3c0.2-0.2,0.3-0.5,0.2-0.8L20.1,6z M18.5,9.6
	c-0.1-0.1-0.1-0.2-0.2-0.2c-0.3-0.3-0.6-0.5-0.9-0.6V7.1h0.8L18.5,9.6z M11.3,2c1.9,0,3.5,1.4,4,3.1h-8C7.8,3.4,9.4,2,11.3,2z
	 M5.1,7.1v1.6C4.7,8.9,4.3,9.2,4,9.6l0.3-2.5H5.1z M2.1,24l1.5-11.6C4.1,13.3,5,14,6.1,14c0,0,0,0,0,0c0,0,0,0,0,0
	c1.5,0,2.7-1.2,2.7-2.7v0c0-1.1-0.7-2.1-1.7-2.5V7.1h8.3v1.6c-1,0.4-1.7,1.4-1.7,2.5c0,1.5,1.2,2.7,2.7,2.7c0,0,0,0,0,0s0,0,0,0
	c1.1,0,2-0.7,2.5-1.6L20.4,24H2.1z"/>
</svg>
