<svg xmlns="http://www.w3.org/2000/svg" viewBox="0 0 15 18"><path d="M7.5,1.26,1.67,4.8,4,6.23,9.86,2.69ZM11,3.37,5.15,6.91,7.5,8.34,13.33,4.8ZM1.12,5.82h0v7L6.94,16.4v-7L4.59,7.92V9.41a.56.56,0,1,1-1.12,0V7.25Zm12.76,0L8.06,9.35v7l5.82-3.54ZM7.5,18a.57.57,0,0,1-.28-.08L.28,13.71A.61.61,0,0,1,0,13.2V4.8H0v0a0,0,0,0,0,0,0H0v0a0,0,0,0,0,0,0H0a.08.08,0,0,1,0,0H0l0-.06h0v0h0l0-.05,0,0,0,0,0,0,0,0h0L7.22.08a.53.53,0,0,1,.56,0l6.94,4.21a.44.44,0,0,1,.11.09l0,0,.06.08h0v0a.61.61,0,0,1,.05.12.68.68,0,0,1,0,.14h0v8.4a.61.61,0,0,1-.28.51L7.78,17.92A.57.57,0,0,1,7.5,18Z" fill="currentColor"/></svg>