<svg xmlns="http://www.w3.org/2000/svg" viewBox="0 0 21 19"><title>chat</title><path d="M19.91,16.17A5.5,5.5,0,0,0,21,12.92a6.22,6.22,0,0,0-5-5.8S16,7,16,7c0-3.86-3.59-7-8-7S0,3.14,0,7a6.26,6.26,0,0,0,1.23,3.71A1.68,1.68,0,0,1,.61,13a.49.49,0,0,0-.24.49.49.49,0,0,0,.36.42,4,4,0,0,0,3.5-.69A8.92,8.92,0,0,0,7.11,14C7.68,16.81,10.57,19,14,19a7.81,7.81,0,0,0,3.25-.7,3.62,3.62,0,0,0,3.06.58.5.5,0,0,0,.13-.92A1.35,1.35,0,0,1,19.91,16.17ZM4.16,12.08a.46.46,0,0,0-.33.13A3,3,0,0,1,2,13a2.74,2.74,0,0,0,.1-2.81A5.33,5.33,0,0,1,1,7C1,3.69,4.14,1,8,1s7,2.69,7,6a5.49,5.49,0,0,1,0,.58c-.66,2.88-3.59,5-7.07,5H7.52a.48.48,0,0,0-.37.14.53.53,0,0,0-.13.27,8,8,0,0,1-2.63-.81A.59.59,0,0,0,4.16,12.08ZM19.08,18a2.57,2.57,0,0,1-1.42-.64.52.52,0,0,0-.57-.08A6.68,6.68,0,0,1,14,18a5.87,5.87,0,0,1-5.84-4c3.91-.07,7.13-2.59,7.73-5.88A5.21,5.21,0,0,1,20,12.92a4.51,4.51,0,0,1-.92,2.69l0,.06A2.37,2.37,0,0,0,19.08,18Z" fill="currentColor"/></svg>