<?xml version="1.0" encoding="utf-8"?>

<svg version="1.1" id="Layer_1" xmlns="http://www.w3.org/2000/svg" xmlns:xlink="http://www.w3.org/1999/xlink" x="0px" y="0px"
	 viewBox="0 0 17.6 18.8" style="enable-background:new 0 0 17.6 18.8;" xml:space="preserve">

<path fill="currentColor" d="M17.6,17.1l-4.3-4.8c1.1-1.3,1.7-3,1.7-4.8C15,3.4,11.6,0,7.5,0C3.4,0,0,3.4,0,7.5C0,11.6,3.4,15,7.5,15
	c1.4,0,2.7-0.4,3.9-1.1l4.3,4.9L17.6,17.1z M3.6,11.4C2.6,10.4,2,9,2,7.5C2,6,2.6,4.6,3.6,3.6C4.6,2.6,6,2,7.5,2
	c1.5,0,2.9,0.6,3.9,1.6c1,1,1.6,2.4,1.6,3.9c0,1.5-0.6,2.9-1.6,3.9c-1,1-2.4,1.6-3.9,1.6C6,13,4.6,12.4,3.6,11.4z"/>
</svg>
