<svg xmlns="http://www.w3.org/2000/svg" width="22.571" height="26" viewBox="0 0 22.571 26">
  <g id="Group_2" data-name="Group 2" transform="translate(1 1)">
    <path id="Stroke_1" data-name="Stroke 1" d="M20.571,18.857H0L2.478,0H18.093Z" transform="translate(0 5.143)" fill="none" stroke="#333" stroke-linecap="round" stroke-linejoin="round" stroke-miterlimit="10" stroke-width="2"/>
    <path id="Stroke_3" data-name="Stroke 3" d="M3.429,1.714A1.714,1.714,0,1,1,1.714,0,1.714,1.714,0,0,1,3.429,1.714Z" transform="translate(3.429 8.571)" fill="none" stroke="#333" stroke-linecap="round" stroke-linejoin="round" stroke-miterlimit="10" stroke-width="2"/>
    <path id="Stroke_5" data-name="Stroke 5" d="M3.429,1.714A1.714,1.714,0,1,1,1.714,0,1.714,1.714,0,0,1,3.429,1.714Z" transform="translate(13.714 8.571)" fill="none" stroke="#333" stroke-linecap="round" stroke-linejoin="round" stroke-miterlimit="10" stroke-width="2"/>
    <path id="Stroke_7" data-name="Stroke 7" d="M0,12V5.2A5.187,5.187,0,0,1,5.143,0a5.188,5.188,0,0,1,5.143,5.2V12" transform="translate(5.143)" fill="none" stroke="#333" stroke-linecap="round" stroke-linejoin="round" stroke-miterlimit="10" stroke-width="2"/>
  </g>
</svg>
