<svg width="28" height="23" viewBox="0 0 28 23" xmlns="http://www.w3.org/2000/svg"><path d="M0 0h28v23H0V0z" fill="none"/><g clip-path="url(#mask_1)"><path d="M27.227.424c-1.11.667-2.34 1.15-3.649 1.411A5.7 5.7 0 0019.386 0c-3.172 0-5.744 2.6-5.744 5.808 0 .455.051.897.148 1.322-4.774-.243-9.006-2.553-11.84-6.067a5.832 5.832 0 00-.778 2.92 5.82 5.82 0 002.557 4.831 5.666 5.666 0 01-2.602-.725v.073c0 2.812 1.98 5.16 4.608 5.693a5.7 5.7 0 01-2.596.1c.733 2.307 2.853 3.985 5.367 4.033a11.45 11.45 0 01-7.135 2.486c-.465 0-.92-.028-1.371-.081A16.144 16.144 0 008.807 23c10.566 0 16.342-8.846 16.342-16.52 0-.25-.003-.503-.014-.752A11.734 11.734 0 0028 2.723a11.34 11.34 0 01-3.3.914A5.808 5.808 0 0027.228.424" fill="currentColor"/></g></svg>