<svg width="28" height="28" viewBox="0 0 28 28" xmlns:xlink="http://www.w3.org/1999/xlink" xmlns="http://www.w3.org/2000/svg"><defs><clipPath id="b"><use xlink:href="#a"/></clipPath><path d="M0 0h27.788v27.788H0V0z" transform="translate(0 .212)" id="a"/></defs><path d="M0 .212h27.788V28H0V.212z" fill="none"/><g clip-path="url(#b)"><path d="M8.165.296C9.647.228 10.121.212 13.894.212s4.246.016 5.728.084c1.48.068 2.489.302 3.373.646.913.355 1.688.83 2.46 1.602a6.808 6.808 0 011.603 2.461c.344.884.579 1.894.646 3.373.068 1.482.084 1.955.084 5.728 0 3.774-.016 4.246-.084 5.728-.067 1.48-.302 2.49-.646 3.373a6.813 6.813 0 01-1.602 2.461 6.81 6.81 0 01-2.461 1.603c-.884.343-1.894.578-3.373.645-1.482.068-1.955.084-5.728.084-3.773 0-4.247-.016-5.729-.084-1.479-.067-2.488-.302-3.372-.645a6.81 6.81 0 01-2.461-1.603 6.813 6.813 0 01-1.602-2.46c-.344-.885-.579-1.895-.646-3.374C.016 18.352 0 17.88 0 14.106S.016 9.86.084 8.378c.067-1.48.302-2.49.646-3.373a6.808 6.808 0 011.602-2.46A6.805 6.805 0 014.793.941C5.677.598 6.686.364 8.165.296zm11.343 2.5c-1.465-.066-1.904-.08-5.614-.08s-4.15.014-5.614.08c-1.355.062-2.09.289-2.58.48a4.301 4.301 0 00-1.598 1.038 4.301 4.301 0 00-1.04 1.598c-.19.49-.416 1.225-.478 2.58-.067 1.465-.08 1.905-.08 5.614 0 3.71.013 4.15.08 5.614.062 1.355.289 2.09.479 2.58a4.304 4.304 0 001.04 1.598c.485.486.948.787 1.597 1.04.49.19 1.225.416 2.58.478 1.464.066 1.904.08 5.614.08s4.15-.014 5.614-.08c1.355-.062 2.09-.289 2.58-.479a4.308 4.308 0 001.598-1.039c.486-.486.787-.95 1.039-1.598.19-.49.416-1.225.478-2.58.067-1.464.082-1.904.082-5.614s-.015-4.15-.082-5.614c-.062-1.355-.288-2.09-.478-2.58a4.302 4.302 0 00-1.04-1.598 4.304 4.304 0 00-1.597-1.039c-.49-.19-1.225-.417-2.58-.478z" fill="currentColor" fill-rule="evenodd"/></g><path d="M7 14a7 7 0 1114 0 7 7 0 01-14 0zm2.456 0a4.544 4.544 0 109.088 0 4.544 4.544 0 00-9.088 0z" fill="currentColor" fill-rule="evenodd"/><path d="M23 6.5a1.5 1.5 0 11-3 0 1.5 1.5 0 013 0" fill="currentColor"/></svg>