<svg xmlns="http://www.w3.org/2000/svg" viewBox="0 0 20.5 18.5"><title>star</title><path d="M19.06,5.87,13.78,5.4a.25.25,0,0,1-.2-.14L11.69.94a1.6,1.6,0,0,0-2.91,0L6.93,5.22l0,.06a.26.26,0,0,1-.2.12l-5.28.47a1.54,1.54,0,0,0-1.34,1A1.44,1.44,0,0,0,.54,8.5l4,3.3a.2.2,0,0,1,.08.21l-1.2,4.63a1.45,1.45,0,0,0,.31,1.29,1.66,1.66,0,0,0,2,.36l4.4-2.44a.3.3,0,0,1,.26,0l4.4,2.44a1.59,1.59,0,0,0,.8.21,1.61,1.61,0,0,0,1.23-.57,1.46,1.46,0,0,0,.3-1.29L15.93,12A.2.2,0,0,1,16,11.8l4-3.31a1.41,1.41,0,0,0,.42-1.59A1.55,1.55,0,0,0,19.06,5.87Zm0,1.66-4,3.3a1.45,1.45,0,0,0-.5,1.48l1.18,4.63a.19.19,0,0,1,0,.18.25.25,0,0,1-.32.05L11,14.73a1.66,1.66,0,0,0-.79-.2,1.68,1.68,0,0,0-.79.2l-4.4,2.44a.25.25,0,0,1-.33-.06.19.19,0,0,1,0-.16l1.2-4.64a1.47,1.47,0,0,0-.5-1.48l-4-3.3a.19.19,0,0,1-.06-.23.24.24,0,0,1,.2-.15l5.27-.47a1.56,1.56,0,0,0,1.32-.92L10,1.42a.24.24,0,0,1,.23-.13.23.23,0,0,1,.22.14l1.89,4.34a1.6,1.6,0,0,0,1.31.91l5.28.47a.24.24,0,0,1,.21.17A.18.18,0,0,1,19.1,7.53Z" fill="currentColor"/></svg>