<svg xmlns="http://www.w3.org/2000/svg" viewBox="0 0 28.29 18"><title>truck</title><path d="M21.69,11.68a3.23,3.23,0,0,1,3.16,2.39H26.7V9.8c0-.12-.2-.19-.38-.19H24.19a.78.78,0,0,1-.73-.49c-.71-1.75-1.21-3-1.56-4a1,1,0,0,0-.85-.64H18.14V11a.8.8,0,0,1-1.59,0v-9a.4.4,0,0,0-.41-.39H2a.41.41,0,0,0-.41.39V14.07H3.65A3.22,3.22,0,0,1,6.8,11.68,3.23,3.23,0,0,1,10,14.07h8.57A3.24,3.24,0,0,1,21.69,11.68ZM6.8,13.21a1.63,1.63,0,1,0,1.68,1.63A1.65,1.65,0,0,0,6.8,13.21Zm14.89,0a1.63,1.63,0,1,0,1.68,1.63A1.65,1.65,0,0,0,21.69,13.21Zm0,4.79a3.24,3.24,0,0,1-3.16-2.39H10A3.23,3.23,0,0,1,6.8,18a3.22,3.22,0,0,1-3.15-2.39H.79A.79.79,0,0,1,0,14.84V1.93A2,2,0,0,1,2,0H16.14a2,2,0,0,1,2,1.93v1h2.92a2.5,2.5,0,0,1,2.33,1.67c.31.86.74,2,1.34,3.46h1.59a1.84,1.84,0,0,1,2,1.73v5a.79.79,0,0,1-.8.77H24.85A3.23,3.23,0,0,1,21.69,18Z" fill="currentColor"/></svg>