<?xml version="1.0" encoding="utf-8"?>
<!-- Generator: Adobe Illustrator 23.0.3, SVG Export Plug-In . SVG Version: 6.00 Build 0)  -->
<svg version="1.1" id="Layer_1" xmlns="http://www.w3.org/2000/svg" xmlns:xlink="http://www.w3.org/1999/xlink" x="0px" y="0px"
	 viewBox="0 0 225.5 39" style="enable-background:new 0 0 225.5 39;" xml:space="preserve">
<g>
	<path d="M11.3,1.8L11.3,1.8C7.2,3.7,3.8,7,1.9,11.2C-2.3,20,0.8,30.4,8.6,35.7l-0.3,0.1l2.8,1.3c2.6,1.2,5.5,1.9,8.3,1.9
		c2.8,0,5.6-0.6,8.2-1.8c9.8-4.5,14-16.1,9.5-25.9C32.7,1.5,21.1-2.7,11.3,1.8z M13.8,35l0.2-0.5h0.5l1-2.6h7.9l1,2.6h2
		C22.4,36.3,17.9,36.5,13.8,35z M16.7,28.7l2.7-7.8l2.7,7.8H16.7z M28,33.6l-8.6-22.1l-8.6,22.1C3.8,29.2,1,20.1,4.6,12.5
		c1.6-3.5,4.5-6.3,8-7.9l0.1,0c8.2-3.7,18-0.1,21.8,8.1C38,20.3,35.1,29.3,28,33.6z"/>
	<path d="M47.5,29.5H50l0.6-1.6h4.9l0.6,1.6h2.5l-5.6-14.4L47.5,29.5z M51.4,25.9l1.7-4.9l1.7,4.9H51.4z"/>
	<path d="M63.2,30.1l5.6-14.6H57.6L63.2,30.1z M63.2,23.8l-2.2-6h4.3L63.2,23.8z"/>
	<polygon points="70.3,29.5 79.7,29.5 79.7,27.2 72.7,27.2 72.7,23.7 78.5,23.7 78.5,21.3 72.7,21.3 72.7,17.8 79.7,17.8 79.7,15.5 
		70.3,15.5 	"/>
	<polygon points="91.4,25.5 84.5,15.5 82.1,15.5 82.1,29.5 84.4,29.5 84.4,19.5 91.4,29.5 93.8,29.5 93.8,15.5 91.4,15.5 	"/>
	<path d="M96.9,23.9c0,0.1,0,1.5,0.7,2.8c1,1.9,2.8,3,5.1,3c2.3,0,4.2-1.1,5.1-3c0.7-1.4,0.7-2.7,0.7-2.8v-8.4H96.9V23.9z
		 M99.3,17.8h7v6c0,0,0,1-0.5,1.9c-0.6,1.1-1.5,1.6-3,1.6c-1.4,0-2.4-0.5-3-1.6c-0.5-0.9-0.5-1.9-0.5-1.9V17.8z"/>
	<polygon points="111.7,29.5 121.1,29.5 121.1,27.2 114.1,27.2 114.1,23.7 119.9,23.7 119.9,21.3 114.1,21.3 114.1,17.8 121.1,17.8 
		121.1,15.5 111.7,15.5 	"/>
	<path d="M136.9,17.6c1.3,0,2.5,0.5,3.3,1.4l1.6-1.6c-1.3-1.3-3-2.1-4.9-2.1c-4.1,0-7,3-7,7.2c0,4.4,3.2,7.2,7,7.2
		c1.9,0,3.7-0.8,4.9-2l-1.6-1.7c-0.8,0.8-2,1.4-3.3,1.4c-2.6,0-4.6-1.9-4.6-4.9C132.3,19.7,134.1,17.6,136.9,17.6z"/>
	<polygon points="146.6,15.5 144.3,15.5 144.3,29.5 151.8,29.5 151.8,27.2 146.6,27.2 	"/>
	<rect x="154.4" y="27.2" width="9.2" height="2.3"/>
	<path d="M159.1,15.3c-2.9,0-5.2,2.3-5.2,5.2s2.3,5.2,5.2,5.2c2.9,0,5.2-2.3,5.2-5.2S161.9,15.3,159.1,15.3z M159.1,23.4
		c-1.6,0-2.9-1.3-2.9-2.9s1.3-2.9,2.9-2.9c1.6,0,2.9,1.3,2.9,2.9S160.7,23.4,159.1,23.4z"/>
	<polygon points="165.9,17.6 168.8,17.6 168.8,29.5 171.1,29.5 171.1,17.6 174.1,17.6 174.1,15.5 165.9,15.5 	"/>
	<polygon points="184.2,21.3 178.4,21.3 178.4,15.5 176.1,15.5 176.1,29.5 178.4,29.5 178.4,23.7 184.2,23.7 184.2,29.5 186.6,29.5 
		186.6,15.5 184.2,15.5 	"/>
	<polygon points="192.8,17.6 194.4,17.6 194.4,15.5 188.9,15.5 188.9,17.6 190.5,17.6 190.5,27.4 188.8,27.4 188.8,29.5 194.4,29.5 
		194.4,27.4 192.8,27.4 	"/>
	<polygon points="206.1,25.5 199.1,15.5 196.7,15.5 196.7,29.5 199.1,29.5 199.1,19.5 206,29.5 208.4,29.5 208.4,15.5 206.1,15.5 	
		"/>
	<path d="M219.3,21.5v2.2h2.3v2c-0.9,1-2.1,1.6-3.5,1.6c-2.6,0-4.7-1.4-4.7-4.9c0-3.1,2.1-4.9,4.7-4.9c1.3,0,2.5,0.5,3.3,1.4
		l1.6-1.6c-1.3-1.3-3-2.1-4.9-2.1c-3.9,0-7,3-7,7.2c0,4.6,2.9,7.2,6.7,7.2c1.7,0,2.8-0.4,4-1.5l0.1,1.3h2v-8H219.3z"/>
</g>
</svg>
