<svg id="ucommerce-widelogo_fix" xmlns="http://www.w3.org/2000/svg" width="140" height="29" viewBox="0 0 140 29">
  <path id="Combined-Shape" d="M16.01,29A16.127,16.127,0,0,1,0,12.774,16.419,16.419,0,0,1,5.866.164a.581.581,0,0,1,.748.03L7.93,1.561a.575.575,0,0,1,0,.79.1.1,0,0,1-.06.03A13.381,13.381,0,0,0,5.776,21.008,12.91,12.91,0,0,0,24.12,23.135,13.381,13.381,0,0,0,26.215,4.509,13.973,13.973,0,0,0,24.12,2.382a.577.577,0,0,1-.09-.79c0-.03.03-.03.03-.061L25.377.164a.546.546,0,0,1,.748-.03A16.423,16.423,0,0,1,28.4,22.984,15.834,15.834,0,0,1,16.01,29Z" fill="#fff"/>
  <path id="Combined-Shape-2" data-name="Combined-Shape" d="M10,20a10,10,0,0,1-.09-20,10.132,10.132,0,0,1,6.928,2.754.562.562,0,0,1,0,.778L15.529,4.85a.558.558,0,0,1-.776,0,7.023,7.023,0,1,0,0,10.239.559.559,0,0,1,.776.03l1.314,1.317a.562.562,0,0,1,0,.778A9.812,9.812,0,0,1,10,20Z" transform="translate(6 3)" fill="#fff"/>
  <path id="Shape" d="M8.835,0H6.575A.194.194,0,0,0,6.4.184h0V6.006A3.013,3.013,0,0,1,5.87,7.875a1.685,1.685,0,0,1-1.35.674,1.58,1.58,0,0,1-1.379-.674,3.013,3.013,0,0,1-.528-1.869V.184A.194.194,0,0,0,2.436,0H.176A.194.194,0,0,0,0,.184H0V6.067A5.089,5.089,0,0,0,1.262,9.713a4.693,4.693,0,0,0,6.457,0A4.964,4.964,0,0,0,8.981,6.067V.184C9.04.061,8.952,0,8.835,0Z" transform="translate(37 9)" fill="#fff"/>
  <path id="Shape-2" data-name="Shape" d="M5.561,0A5.437,5.437,0,0,0,1.615,1.585,5.253,5.253,0,0,0,0,5.53,5.319,5.319,0,0,0,1.585,9.445,5.616,5.616,0,0,0,5.621,11,5.553,5.553,0,0,0,9.865,8.967a.182.182,0,0,0,0-.239L8.4,7.2a.228.228,0,0,0-.149-.06.164.164,0,0,0-.149.09,3.2,3.2,0,0,1-2.63,1.255A2.574,2.574,0,0,1,3.5,7.682,3.093,3.093,0,0,1,2.691,5.5a2.8,2.8,0,0,1,.867-2.152,3.013,3.013,0,0,1,2.092-.807A3.2,3.2,0,0,1,8.221,3.826a.228.228,0,0,0,.149.06c.06,0,.09-.03.149-.06L9.955,2.213a.182.182,0,0,0,0-.239A5.668,5.668,0,0,0,5.561,0Z" transform="translate(48 9)" fill="#fff"/>
  <path id="Shape-3" data-name="Shape" d="M1.593,9.428A5.279,5.279,0,0,1,0,5.508a5.4,5.4,0,0,1,1.592-3.92A5.322,5.322,0,0,1,5.486,0,5.435,5.435,0,0,1,9.407,1.588,5.281,5.281,0,0,1,11,5.508a5.391,5.391,0,0,1-1.592,3.92A5.683,5.683,0,0,1,5.489,11,5.607,5.607,0,0,1,1.593,9.428Z" transform="translate(59 9)" fill="#fff"/>
  <path id="Shape-4" data-name="Shape" d="M11.843.031H8.723a.188.188,0,0,0-.182.124L6.027,5.639,3.513.124A.2.2,0,0,0,3.332,0H.182A.2.2,0,0,0,0,.186H0V10.814A.2.2,0,0,0,.182,11H2.514a.2.2,0,0,0,.182-.186h0V4.927l2.453,5.082A.166.166,0,0,0,5.3,10.1H6.694a.166.166,0,0,0,.151-.093L9.3,4.927v5.887A.2.2,0,0,0,9.48,11h2.332a.2.2,0,0,0,.182-.186h0V.217A.154.154,0,0,0,11.843.031Z" transform="translate(71 9)" fill="#fff"/>
  <path id="Shape-5" data-name="Shape" d="M11.843.031H8.723a.166.166,0,0,0-.151.093L6.058,5.608,3.513.124A.2.2,0,0,0,3.332,0H.182A.2.2,0,0,0,0,.186H0V10.814A.2.2,0,0,0,.182,11H2.514a.2.2,0,0,0,.182-.186h0V4.927l2.453,5.082A.166.166,0,0,0,5.3,10.1H6.694a.166.166,0,0,0,.151-.093L9.3,4.927v5.887A.2.2,0,0,0,9.48,11h2.332a.2.2,0,0,0,.182-.186h0V.217a.143.143,0,0,0-.151-.186Z" transform="translate(86 9)" fill="#fff"/>
  <path id="Shape-6" data-name="Shape" d="M7.789,8.49H2.657V6.662H7.125a.2.2,0,0,0,.181-.186h0V4.462a.2.2,0,0,0-.181-.186H2.657v-1.8H7.638a.2.2,0,0,0,.181-.186h0V.186A.2.2,0,0,0,7.638,0H.181A.2.2,0,0,0,0,.186H0V10.814A.2.2,0,0,0,.181,11H7.819A.2.2,0,0,0,8,10.814H8V8.707a.209.209,0,0,0-.211-.217Z" transform="translate(100 9)" fill="#fff"/>
  <path id="Shape-7" data-name="Shape" d="M6.115,11a.157.157,0,0,1-.144-.093L3.837,7.6H2.568v3.182a.194.194,0,0,1-.174.185H.173A.193.193,0,0,1,0,10.784V.185A.193.193,0,0,1,.173,0h3.75a5.115,5.115,0,0,1,3.4.865A3.592,3.592,0,0,1,8.366,3.708,3.37,3.37,0,0,1,6.577,7.076l2.394,3.615A.2.2,0,0,1,9,10.814.193.193,0,0,1,8.827,11Z" transform="translate(110 9)" fill="#fff"/>
  <path id="Shape-8" data-name="Shape" d="M5.561,0A5.437,5.437,0,0,0,1.615,1.585,5.253,5.253,0,0,0,0,5.53,5.319,5.319,0,0,0,1.585,9.445,5.616,5.616,0,0,0,5.621,11,5.553,5.553,0,0,0,9.865,8.967a.182.182,0,0,0,0-.239L8.4,7.233a.228.228,0,0,0-.149-.06c-.06,0-.09.03-.149.06a3.2,3.2,0,0,1-2.63,1.255A2.574,2.574,0,0,1,3.5,7.682,2.9,2.9,0,0,1,2.691,5.53a2.8,2.8,0,0,1,.867-2.152,3.013,3.013,0,0,1,2.092-.807A3.2,3.2,0,0,1,8.221,3.856a.217.217,0,0,0,.3,0L9.955,2.243a.182.182,0,0,0,0-.239A5.6,5.6,0,0,0,5.561,0Z" transform="translate(120 9)" fill="#fff"/>
  <path id="Shape-9" data-name="Shape" d="M7.789,8.49H2.657V6.662H7.125a.2.2,0,0,0,.181-.186h0V4.462a.2.2,0,0,0-.181-.186H2.657v-1.8H7.638a.2.2,0,0,0,.181-.186h0V.186A.2.2,0,0,0,7.638,0H.181A.2.2,0,0,0,0,.186H0V10.814A.2.2,0,0,0,.181,11H7.819A.2.2,0,0,0,8,10.814H8V8.707c-.03-.124-.121-.217-.211-.217Z" transform="translate(132 9)" fill="#fff"/>
</svg>
