<?xml version="1.0" encoding="utf-8"?>
<!-- Generator: Adobe Illustrator 23.0.3, SVG Export Plug-In . SVG Version: 6.00 Build 0)  -->
<svg version="1.1" id="Layer_1" xmlns="http://www.w3.org/2000/svg" xmlns:xlink="http://www.w3.org/1999/xlink" x="0px" y="0px"
	 viewBox="0 0 168 18" style="enable-background:new 0 0 168 18;" xml:space="preserve">
<style type="text/css">
	.st0{fill:#6983D7;}
	.st1{fill:#F6635F;}
	.st2{fill:#FFB548;}
	.st3{fill-rule:evenodd;clip-rule:evenodd;fill:#FF8150;}
	.st4{fill:#F7F7F7;}
	.st5{fill:#575DC1;}
	.st6{fill:#EBAA3E;}
	.st7{fill:#5565AF;}
	.st8{fill-rule:evenodd;clip-rule:evenodd;fill:#5565AF;}
	.st9{fill:#FFEEDA;}
	.st10{fill-rule:evenodd;clip-rule:evenodd;fill:#FFA821;}
	.st11{fill:#FFA821;}
	.st12{fill-rule:evenodd;clip-rule:evenodd;fill:#FA9A06;}
	.st13{fill:#5EC1EC;}
	.st14{fill-rule:evenodd;clip-rule:evenodd;fill:#FFFFFF;}
	.st15{fill:#EEEEEE;}
	.st16{fill:#DCDCDC;}
</style>
<desc>Created with Lunacy</desc>
<g id="Group-5" transform="translate(78 6)">
	<path id="Rectangle-2" class="st0" d="M-7-2V8c0,0.1,0,0.3,0,0.4c0,0.1,0,0.3,0.1,0.4c0,0.1,0.1,0.3,0.1,0.4c0,0.1,0.1,0.2,0.1,0.4
		c0.1,0.1,0.1,0.2,0.2,0.4c0.1,0.1,0.1,0.2,0.2,0.3c0.1,0.1,0.2,0.2,0.2,0.3c0.1,0.1,0.2,0.2,0.3,0.3c0.1,0.1,0.2,0.2,0.3,0.3
		c0.1,0.1,0.2,0.2,0.3,0.2c0.1,0.1,0.2,0.1,0.3,0.2c0.1,0.1,0.2,0.1,0.4,0.2s0.2,0.1,0.4,0.1s0.3,0.1,0.4,0.1c0.1,0,0.3,0,0.4,0.1
		c0.1,0,0.3,0,0.4,0h19c0.1,0,0.3,0,0.4,0c0.1,0,0.3,0,0.4-0.1c0.1,0,0.3-0.1,0.4-0.1c0.1,0,0.2-0.1,0.4-0.1
		c0.1-0.1,0.2-0.1,0.4-0.2c0.1-0.1,0.2-0.1,0.3-0.2c0.1-0.1,0.2-0.2,0.3-0.2c0.1-0.1,0.2-0.2,0.3-0.3c0.1-0.1,0.2-0.2,0.3-0.3
		c0.1-0.1,0.2-0.2,0.2-0.3c0.1-0.1,0.1-0.2,0.2-0.3c0.1-0.1,0.1-0.2,0.2-0.4c0.1-0.1,0.1-0.2,0.1-0.4c0-0.1,0.1-0.3,0.1-0.4
		c0-0.1,0-0.3,0.1-0.4c0-0.1,0-0.3,0-0.4V-2c0-0.1,0-0.3,0-0.4c0-0.1,0-0.3-0.1-0.4c0-0.1-0.1-0.3-0.1-0.4c0-0.1-0.1-0.2-0.1-0.4
		c-0.1-0.1-0.1-0.2-0.2-0.4c-0.1-0.1-0.1-0.2-0.2-0.3c-0.1-0.1-0.2-0.2-0.2-0.3c-0.1-0.1-0.2-0.2-0.3-0.3c-0.1-0.1-0.2-0.2-0.3-0.3
		c-0.1-0.1-0.2-0.2-0.3-0.2c-0.1-0.1-0.2-0.1-0.3-0.2c-0.1-0.1-0.2-0.1-0.4-0.2c-0.1-0.1-0.2-0.1-0.4-0.1c-0.1,0-0.3-0.1-0.4-0.1
		c-0.1,0-0.3,0-0.4-0.1c-0.1,0-0.3,0-0.4,0H-3c-0.1,0-0.3,0-0.4,0c-0.1,0-0.3,0-0.4,0.1c-0.1,0-0.3,0.1-0.4,0.1
		c-0.1,0-0.2,0.1-0.4,0.1c-0.1,0.1-0.2,0.1-0.4,0.2C-5-5.4-5.1-5.4-5.2-5.3c-0.1,0.1-0.2,0.2-0.3,0.2C-5.6-5-5.7-4.9-5.8-4.8
		S-6-4.6-6.1-4.5c-0.1,0.1-0.2,0.2-0.2,0.3C-6.4-4.1-6.5-4-6.5-3.9c-0.1,0.1-0.1,0.2-0.2,0.4c-0.1,0.1-0.1,0.2-0.1,0.4
		c0,0.1-0.1,0.3-0.1,0.4c0,0.1,0,0.3-0.1,0.4C-7-2.2-7-2.1-7-2z"/>
	<path id="Oval-1" class="st1" d="M2.7,8.7c3,0,5.4-2.5,5.4-5.6S5.7-2.6,2.7-2.6S-2.7-0.1-2.7,3S-0.3,8.7,2.7,8.7z"/>
	<path id="Oval-2" class="st2" d="M10.3,8.7c3,0,5.4-2.5,5.4-5.6s-2.4-5.6-5.4-5.6S4.9-0.1,4.9,3S7.3,8.7,10.3,8.7z"/>
	<path id="Oval-4" class="st3" d="M6.5-1c-1,1-1.6,2.4-1.6,4c0,1.6,0.6,3,1.6,4c1-1,1.6-2.4,1.6-4C8.1,1.5,7.5,0,6.5-1L6.5-1z"/>
</g>
<g id="Group-2" transform="translate(148 6)">
	<path id="Rectangle-4" class="st4" d="M-7-2V8c0,0.1,0,0.3,0,0.4c0,0.1,0,0.3,0.1,0.4c0,0.1,0.1,0.3,0.1,0.4c0,0.1,0.1,0.2,0.1,0.4
		c0.1,0.1,0.1,0.2,0.2,0.4c0.1,0.1,0.1,0.2,0.2,0.3c0.1,0.1,0.2,0.2,0.2,0.3c0.1,0.1,0.2,0.2,0.3,0.3c0.1,0.1,0.2,0.2,0.3,0.3
		c0.1,0.1,0.2,0.2,0.3,0.2c0.1,0.1,0.2,0.1,0.3,0.2c0.1,0.1,0.2,0.1,0.4,0.2s0.2,0.1,0.4,0.1s0.3,0.1,0.4,0.1c0.1,0,0.3,0,0.4,0.1
		c0.1,0,0.3,0,0.4,0h19c0.1,0,0.3,0,0.4,0c0.1,0,0.3,0,0.4-0.1c0.1,0,0.3-0.1,0.4-0.1c0.1,0,0.2-0.1,0.4-0.1
		c0.1-0.1,0.2-0.1,0.4-0.2c0.1-0.1,0.2-0.1,0.3-0.2c0.1-0.1,0.2-0.2,0.3-0.2c0.1-0.1,0.2-0.2,0.3-0.3c0.1-0.1,0.2-0.2,0.3-0.3
		c0.1-0.1,0.2-0.2,0.2-0.3c0.1-0.1,0.1-0.2,0.2-0.3c0.1-0.1,0.1-0.2,0.2-0.4c0.1-0.1,0.1-0.2,0.1-0.4c0-0.1,0.1-0.3,0.1-0.4
		c0-0.1,0-0.3,0.1-0.4c0-0.1,0-0.3,0-0.4V-2c0-0.1,0-0.3,0-0.4c0-0.1,0-0.3-0.1-0.4c0-0.1-0.1-0.3-0.1-0.4c0-0.1-0.1-0.2-0.1-0.4
		c-0.1-0.1-0.1-0.2-0.2-0.4c-0.1-0.1-0.1-0.2-0.2-0.3c-0.1-0.1-0.2-0.2-0.2-0.3c-0.1-0.1-0.2-0.2-0.3-0.3c-0.1-0.1-0.2-0.2-0.3-0.3
		c-0.1-0.1-0.2-0.2-0.3-0.2c-0.1-0.1-0.2-0.1-0.3-0.2c-0.1-0.1-0.2-0.1-0.4-0.2c-0.1-0.1-0.2-0.1-0.4-0.1c-0.1,0-0.3-0.1-0.4-0.1
		c-0.1,0-0.3,0-0.4-0.1c-0.1,0-0.3,0-0.4,0H-3c-0.1,0-0.3,0-0.4,0c-0.1,0-0.3,0-0.4,0.1c-0.1,0-0.3,0.1-0.4,0.1
		c-0.1,0-0.2,0.1-0.4,0.1c-0.1,0.1-0.2,0.1-0.4,0.2C-5-5.4-5.1-5.4-5.2-5.3c-0.1,0.1-0.2,0.2-0.3,0.2C-5.6-5-5.7-4.9-5.8-4.8
		S-6-4.6-6.1-4.5c-0.1,0.1-0.2,0.2-0.2,0.3C-6.4-4.1-6.5-4-6.5-3.9c-0.1,0.1-0.1,0.2-0.2,0.4c-0.1,0.1-0.1,0.2-0.1,0.4
		c0,0.1-0.1,0.3-0.1,0.4c0,0.1,0,0.3-0.1,0.4C-7-2.2-7-2.1-7-2z"/>
	<path id="Rectangle-5" class="st5" d="M-7-4.3v1.7h27v-1.7c0-0.1,0-0.1,0-0.2c0-0.1,0-0.1,0-0.2c0-0.1,0-0.1,0-0.2
		c0-0.1,0-0.1-0.1-0.2c0-0.1,0-0.1-0.1-0.1c0,0-0.1-0.1-0.1-0.1c0,0-0.1-0.1-0.1-0.1c0,0-0.1-0.1-0.1-0.1c0,0-0.1-0.1-0.1-0.1
		c0,0-0.1-0.1-0.1-0.1c0,0-0.1-0.1-0.1-0.1c0,0-0.1,0-0.1-0.1c-0.1,0-0.1,0-0.2-0.1c-0.1,0-0.1,0-0.2,0c-0.1,0-0.1,0-0.2,0
		c-0.1,0-0.1,0-0.2,0H-5.3c-0.1,0-0.1,0-0.2,0c-0.1,0-0.1,0-0.2,0c-0.1,0-0.1,0-0.2,0c-0.1,0-0.1,0-0.2,0.1c-0.1,0-0.1,0-0.1,0.1
		c0,0-0.1,0.1-0.1,0.1c0,0-0.1,0.1-0.1,0.1c0,0-0.1,0.1-0.1,0.1c0,0-0.1,0.1-0.1,0.1c0,0-0.1,0.1-0.1,0.1c0,0-0.1,0.1-0.1,0.1
		c0,0,0,0.1-0.1,0.1c0,0.1,0,0.1-0.1,0.2c0,0.1,0,0.1,0,0.2c0,0.1,0,0.1,0,0.2C-7-4.4-7-4.3-7-4.3L-7-4.3z"/>
	<path id="Rectangle-6" class="st6" d="M-7,8.7v1.7c0,0.1,0,0.1,0,0.2c0,0.1,0,0.1,0,0.2c0,0.1,0,0.1,0,0.2c0,0.1,0,0.1,0.1,0.2
		c0,0.1,0,0.1,0.1,0.1c0,0,0.1,0.1,0.1,0.1c0,0,0.1,0.1,0.1,0.1c0,0,0.1,0.1,0.1,0.1c0,0,0.1,0.1,0.1,0.1c0,0,0.1,0.1,0.1,0.1
		c0,0,0.1,0.1,0.1,0.1c0,0,0.1,0,0.1,0.1c0.1,0,0.1,0,0.2,0.1c0.1,0,0.1,0,0.2,0c0.1,0,0.1,0,0.2,0c0.1,0,0.1,0,0.2,0h23.6
		c0.1,0,0.1,0,0.2,0c0.1,0,0.1,0,0.2,0c0.1,0,0.1,0,0.2,0c0.1,0,0.1,0,0.2-0.1c0.1,0,0.1,0,0.1-0.1c0,0,0.1-0.1,0.1-0.1
		c0,0,0.1-0.1,0.1-0.1c0,0,0.1-0.1,0.1-0.1c0,0,0.1-0.1,0.1-0.1c0,0,0.1-0.1,0.1-0.1c0,0,0.1-0.1,0.1-0.1c0,0,0-0.1,0.1-0.1
		c0-0.1,0-0.1,0.1-0.2c0-0.1,0-0.1,0-0.2c0-0.1,0-0.1,0-0.2c0-0.1,0-0.1,0-0.2V8.7H-7z"/>
	<g id="Group" transform="translate(6.48 6.75)">
		<path id="Shape" class="st7" d="M-5.8-1.8c0.2-0.5,0.3-0.9,0.4-1L-3.8-6h1.1l-2.7,5.2h-1.2L-7-6h1.1l0.2,3.1c0,0.1,0,0.3,0,0.5
			C-5.8-2.1-5.8-1.9-5.8-1.8L-5.8-1.8L-5.8-1.8z"/>
		<path class="st7" d="M-2.9-0.8L-1.8-6h1.1l-1.1,5.2H-2.9L-2.9-0.8z"/>
		<path class="st7" d="M2.6-2.2c0,0.5-0.2,0.9-0.5,1.2C1.7-0.8,1.2-0.6,0.6-0.6c-0.5,0-0.9-0.1-1.3-0.3v-1c0.5,0.3,0.9,0.4,1.3,0.4
			c0.3,0,0.5,0,0.6-0.2c0.1-0.1,0.2-0.2,0.2-0.4c0-0.1,0-0.2,0-0.3c0-0.1-0.1-0.1-0.1-0.2C1.3-2.6,1.1-2.8,0.9-2.9
			C0.5-3.2,0.3-3.4,0.2-3.6C0.1-3.9,0-4.1,0-4.4C0-4.7,0.1-5,0.2-5.2c0.1-0.2,0.4-0.4,0.6-0.6C1.1-5.9,1.4-6,1.8-6
			c0.5,0,1,0.1,1.4,0.4L2.8-4.8C2.4-5,2.1-5,1.8-5C1.6-5,1.4-5,1.3-4.9C1.2-4.8,1.1-4.6,1.1-4.5c0,0.1,0,0.3,0.1,0.4
			C1.3-4,1.5-3.8,1.7-3.7C2-3.5,2.2-3.3,2.4-3C2.5-2.8,2.6-2.5,2.6-2.2L2.6-2.2z"/>
		<path class="st8" d="M4.3-2H6l0.1,1.2h1.1L6.6-6H5.3L2.6-0.7h1.1L4.3-2z M5.9-4.1L6-2.9H4.8l0.7-1.4c0.2-0.3,0.3-0.6,0.4-0.9v0.1
			C5.8-4.8,5.8-4.5,5.9-4.1z"/>
	</g>
</g>
<g id="Group-3" transform="translate(42 5)">
	<path id="Rectangle-9" class="st9" d="M-6.8-1v9.6c0,0.1,0,0.3,0,0.4c0,0.1,0,0.3,0.1,0.4c0,0.1,0.1,0.3,0.1,0.4
		c0,0.1,0.1,0.2,0.1,0.4c0.1,0.1,0.1,0.2,0.2,0.4c0.1,0.1,0.1,0.2,0.2,0.3c0.1,0.1,0.2,0.2,0.2,0.3c0.1,0.1,0.2,0.2,0.3,0.3
		c0.1,0.1,0.2,0.2,0.3,0.3c0.1,0.1,0.2,0.2,0.3,0.2c0.1,0.1,0.2,0.1,0.3,0.2c0.1,0.1,0.2,0.1,0.4,0.2c0.1,0.1,0.2,0.1,0.4,0.1
		c0.1,0,0.3,0.1,0.4,0.1c0.1,0,0.3,0,0.4,0.1c0.1,0,0.3,0,0.4,0h19.6c0.1,0,0.3,0,0.4,0c0.1,0,0.3,0,0.4-0.1c0.1,0,0.3-0.1,0.4-0.1
		c0.1,0,0.2-0.1,0.4-0.1c0.1-0.1,0.2-0.1,0.4-0.2c0.1-0.1,0.2-0.1,0.3-0.2c0.1-0.1,0.2-0.2,0.3-0.2c0.1-0.1,0.2-0.2,0.3-0.3
		c0.1-0.1,0.2-0.2,0.3-0.3c0.1-0.1,0.2-0.2,0.2-0.3c0.1-0.1,0.1-0.2,0.2-0.3c0.1-0.1,0.1-0.2,0.2-0.4c0.1-0.1,0.1-0.2,0.1-0.4
		c0-0.1,0.1-0.3,0.1-0.4c0-0.1,0-0.3,0.1-0.4c0-0.1,0-0.3,0-0.4V-1c0-0.1,0-0.3,0-0.4c0-0.1,0-0.3-0.1-0.4c0-0.1-0.1-0.3-0.1-0.4
		c0-0.1-0.1-0.2-0.1-0.4c-0.1-0.1-0.1-0.2-0.2-0.4c-0.1-0.1-0.1-0.2-0.2-0.3C20-3.3,20-3.4,19.9-3.5c-0.1-0.1-0.2-0.2-0.3-0.3
		c-0.1-0.1-0.2-0.2-0.3-0.3c-0.1-0.1-0.2-0.2-0.3-0.2c-0.1-0.1-0.2-0.1-0.3-0.2c-0.1-0.1-0.2-0.1-0.4-0.2c-0.1-0.1-0.2-0.1-0.4-0.1
		c-0.1,0-0.3-0.1-0.4-0.1c-0.1,0-0.3,0-0.4-0.1c-0.1,0-0.3,0-0.4,0H-2.8c-0.1,0-0.3,0-0.4,0c-0.1,0-0.3,0-0.4,0.1
		c-0.1,0-0.3,0.1-0.4,0.1c-0.1,0-0.2,0.1-0.4,0.1c-0.1,0.1-0.2,0.1-0.4,0.2C-4.8-4.5-4.9-4.4-5-4.3c-0.1,0.1-0.2,0.2-0.3,0.2
		C-5.5-4-5.5-3.9-5.6-3.8s-0.2,0.2-0.3,0.3C-6-3.4-6.1-3.3-6.1-3.2C-6.2-3.1-6.3-3-6.3-2.9c-0.1,0.1-0.1,0.2-0.2,0.4
		c-0.1,0.1-0.1,0.2-0.1,0.4c0,0.1-0.1,0.3-0.1,0.4c0,0.1,0,0.3-0.1,0.4C-6.8-1.3-6.8-1.1-6.8-1L-6.8-1z"/>
	<path id="Rectangle-10" class="st10" d="M5.8,12.5h11c0.1,0,0.3,0,0.4,0c0.1,0,0.3,0,0.4-0.1c0.1,0,0.3-0.1,0.4-0.1
		c0.1,0,0.2-0.1,0.4-0.1s0.2-0.1,0.4-0.2c0.1-0.1,0.2-0.1,0.3-0.2c0.1-0.1,0.2-0.2,0.3-0.2c0.1-0.1,0.2-0.2,0.3-0.3
		c0.1-0.1,0.2-0.2,0.3-0.3c0.1-0.1,0.2-0.2,0.2-0.3c0.1-0.1,0.1-0.2,0.2-0.3c0.1-0.1,0.1-0.2,0.2-0.4c0.1-0.1,0.1-0.2,0.1-0.4
		c0-0.1,0.1-0.3,0.1-0.4c0-0.1,0-0.3,0.1-0.4c0-0.1,0-0.3,0-0.4V3.1C18.5,7.4,13,10.9,5.8,12.5z"/>
	<path id="Oval-6" class="st11" d="M7,7.1c2.1,0,3.9-1.7,3.9-3.8S9.1-0.6,7-0.6S3.1,1.1,3.1,3.2S4.9,7.1,7,7.1z"/>
	<path id="Oval-7" class="st12" d="M9.5,0.3C8.8-0.3,8-0.6,7-0.6c-2.1,0-3.9,1.7-3.9,3.8c0,1.2,0.6,2.3,1.4,3
		C5.3,3.6,7.1,1.5,9.5,0.3z"/>
</g>
<g transform="translate(113 6)">
	<path id="Rectangle-11" class="st13" d="M-7-2V8c0,0.1,0,0.3,0,0.4c0,0.1,0,0.3,0.1,0.4c0,0.1,0.1,0.3,0.1,0.4
		c0,0.1,0.1,0.2,0.1,0.4c0.1,0.1,0.1,0.2,0.2,0.4c0.1,0.1,0.1,0.2,0.2,0.3c0.1,0.1,0.2,0.2,0.2,0.3c0.1,0.1,0.2,0.2,0.3,0.3
		c0.1,0.1,0.2,0.2,0.3,0.3c0.1,0.1,0.2,0.2,0.3,0.2c0.1,0.1,0.2,0.1,0.3,0.2c0.1,0.1,0.2,0.1,0.4,0.2s0.2,0.1,0.4,0.1
		s0.3,0.1,0.4,0.1c0.1,0,0.3,0,0.4,0.1c0.1,0,0.3,0,0.4,0h19c0.1,0,0.3,0,0.4,0c0.1,0,0.3,0,0.4-0.1c0.1,0,0.3-0.1,0.4-0.1
		c0.1,0,0.2-0.1,0.4-0.1c0.1-0.1,0.2-0.1,0.4-0.2c0.1-0.1,0.2-0.1,0.3-0.2c0.1-0.1,0.2-0.2,0.3-0.2c0.1-0.1,0.2-0.2,0.3-0.3
		c0.1-0.1,0.2-0.2,0.3-0.3c0.1-0.1,0.2-0.2,0.2-0.3c0.1-0.1,0.1-0.2,0.2-0.3c0.1-0.1,0.1-0.2,0.2-0.4c0.1-0.1,0.1-0.2,0.1-0.4
		c0-0.1,0.1-0.3,0.1-0.4c0-0.1,0-0.3,0.1-0.4c0-0.1,0-0.3,0-0.4V-2c0-0.1,0-0.3,0-0.4c0-0.1,0-0.3-0.1-0.4c0-0.1-0.1-0.3-0.1-0.4
		c0-0.1-0.1-0.2-0.1-0.4c-0.1-0.1-0.1-0.2-0.2-0.4c-0.1-0.1-0.1-0.2-0.2-0.3c-0.1-0.1-0.2-0.2-0.2-0.3c-0.1-0.1-0.2-0.2-0.3-0.3
		c-0.1-0.1-0.2-0.2-0.3-0.3c-0.1-0.1-0.2-0.2-0.3-0.2c-0.1-0.1-0.2-0.1-0.3-0.2c-0.1-0.1-0.2-0.1-0.4-0.2c-0.1-0.1-0.2-0.1-0.4-0.1
		c-0.1,0-0.3-0.1-0.4-0.1c-0.1,0-0.3,0-0.4-0.1c-0.1,0-0.3,0-0.4,0H-3c-0.1,0-0.3,0-0.4,0c-0.1,0-0.3,0-0.4,0.1
		c-0.1,0-0.3,0.1-0.4,0.1c-0.1,0-0.2,0.1-0.4,0.1c-0.1,0.1-0.2,0.1-0.4,0.2C-5-5.4-5.1-5.4-5.2-5.3c-0.1,0.1-0.2,0.2-0.3,0.2
		C-5.6-5-5.7-4.9-5.8-4.8S-6-4.6-6.1-4.5c-0.1,0.1-0.2,0.2-0.2,0.3C-6.4-4.1-6.5-4-6.5-3.9c-0.1,0.1-0.1,0.2-0.2,0.4
		c-0.1,0.1-0.1,0.2-0.1,0.4c0,0.1-0.1,0.3-0.1,0.4c0,0.1,0,0.3-0.1,0.4C-7-2.2-7-2.1-7-2z"/>
	<path id="AMEX" class="st14" d="M0.2,5.9h1.1l-2-5.6h-1.1l-2,5.6h1.1l0.4-1.3h2L0.2,5.9z M1.9,0.3v5.6h1V1.5l1,4.4h1l1-4.4v4.4h1
		V0.3H5.2L4.3,4.1L3.4,0.3H1.9z M7.8,5.9V0.3h3.8v1H8.8v1.2h2.6v0.9H8.8V5h2.8v0.9H7.8z M13.8,3L12,5.9h1.2L14.4,4l1.1,1.9h1.2L15,3
		l1.6-2.7h-1.2l-1,1.8l-1-1.8h-1.2L13.8,3z M-0.5,3.7l-0.7-2.1l-0.7,2.1H-0.5z"/>
</g>
<g id="Group-4" transform="translate(7 6)">
	<g>
		<path id="Rectangle-1" class="st15" d="M-7-2V8c0,0.1,0,0.3,0,0.4c0,0.1,0,0.3,0.1,0.4c0,0.1,0.1,0.3,0.1,0.4
			c0,0.1,0.1,0.2,0.1,0.4c0.1,0.1,0.1,0.2,0.2,0.4c0.1,0.1,0.1,0.2,0.2,0.3c0.1,0.1,0.2,0.2,0.2,0.3c0.1,0.1,0.2,0.2,0.3,0.3
			c0.1,0.1,0.2,0.2,0.3,0.3c0.1,0.1,0.2,0.2,0.3,0.2c0.1,0.1,0.2,0.1,0.3,0.2c0.1,0.1,0.2,0.1,0.4,0.2s0.2,0.1,0.4,0.1
			s0.3,0.1,0.4,0.1c0.1,0,0.3,0,0.4,0.1c0.1,0,0.3,0,0.4,0h19c0.1,0,0.3,0,0.4,0c0.1,0,0.3,0,0.4-0.1c0.1,0,0.3-0.1,0.4-0.1
			c0.1,0,0.2-0.1,0.4-0.1c0.1-0.1,0.2-0.1,0.4-0.2c0.1-0.1,0.2-0.1,0.3-0.2c0.1-0.1,0.2-0.2,0.3-0.2c0.1-0.1,0.2-0.2,0.3-0.3
			c0.1-0.1,0.2-0.2,0.3-0.3c0.1-0.1,0.2-0.2,0.2-0.3c0.1-0.1,0.1-0.2,0.2-0.3c0.1-0.1,0.1-0.2,0.2-0.4c0.1-0.1,0.1-0.2,0.1-0.4
			c0-0.1,0.1-0.3,0.1-0.4c0-0.1,0-0.3,0.1-0.4c0-0.1,0-0.3,0-0.4V-2c0-0.1,0-0.3,0-0.4c0-0.1,0-0.3-0.1-0.4c0-0.1-0.1-0.3-0.1-0.4
			c0-0.1-0.1-0.2-0.1-0.4c-0.1-0.1-0.1-0.2-0.2-0.4c-0.1-0.1-0.1-0.2-0.2-0.3c-0.1-0.1-0.2-0.2-0.2-0.3c-0.1-0.1-0.2-0.2-0.3-0.3
			c-0.1-0.1-0.2-0.2-0.3-0.3c-0.1-0.1-0.2-0.2-0.3-0.2c-0.1-0.1-0.2-0.1-0.3-0.2c-0.1-0.1-0.2-0.1-0.4-0.2c-0.1-0.1-0.2-0.1-0.4-0.1
			c-0.1,0-0.3-0.1-0.4-0.1c-0.1,0-0.3,0-0.4-0.1c-0.1,0-0.3,0-0.4,0H-3c-0.1,0-0.3,0-0.4,0c-0.1,0-0.3,0-0.4,0.1
			c-0.1,0-0.3,0.1-0.4,0.1c-0.1,0-0.2,0.1-0.4,0.1c-0.1,0.1-0.2,0.1-0.4,0.2C-5-5.4-5.1-5.4-5.2-5.3c-0.1,0.1-0.2,0.2-0.3,0.2
			C-5.6-5-5.7-4.9-5.8-4.8S-6-4.6-6.1-4.5c-0.1,0.1-0.2,0.2-0.2,0.3C-6.4-4.1-6.5-4-6.5-3.9c-0.1,0.1-0.1,0.2-0.2,0.4
			c-0.1,0.1-0.1,0.2-0.1,0.4c0,0.1-0.1,0.3-0.1,0.4c0,0.1,0,0.3-0.1,0.4C-7-2.2-7-2.1-7-2z"/>
		<path id="Rectangle-3" class="st16" d="M-7-1.5v3.4h27v-3.4H-7z"/>
	</g>
	<g id="Line">
		<rect x="-4.2" y="4.8" class="st16" width="9.6" height="2"/>
	</g>
	<g id="Line-2">
		<rect x="-4.2" y="7.1" class="st16" width="6.3" height="2"/>
	</g>
	<path class="st16" d="M12.4,5.3v3.4h4.3V5.3H12.4z"/>
</g>
</svg>
