<svg xmlns="http://www.w3.org/2000/svg" viewBox="0 0 140 29"><title>logo-ucommerce</title><g id="Layer_2" data-name="Layer 2"><g id="Layer_1-2" data-name="Layer 1"><g id="ucommerce-widelogo_fix" data-name="ucommerce-widelogo fix"><path id="Combined-Shape" d="M16,29A16.12,16.12,0,0,1,0,12.77,16.4,16.4,0,0,1,5.87.16a.58.58,0,0,1,.74,0L7.93,1.56a.57.57,0,0,1,0,.79.1.1,0,0,1-.06,0A13.38,13.38,0,0,0,5.78,21a12.91,12.91,0,0,0,18.34,2.13,13.39,13.39,0,0,0,2.1-18.63,14.1,14.1,0,0,0-2.1-2.13A.58.58,0,0,1,24,1.59s0,0,0-.06L25.38.16a.55.55,0,0,1,.75,0A16.42,16.42,0,0,1,28.4,23,15.83,15.83,0,0,1,16,29Z" fill="#fff"/><path d="M16,23a10,10,0,0,1-.09-20,10.16,10.16,0,0,1,6.93,2.75.56.56,0,0,1,0,.78L21.53,7.85a.56.56,0,0,1-.78,0,7,7,0,1,0,0,10.24.56.56,0,0,1,.78,0l1.31,1.32a.56.56,0,0,1,0,.78A9.83,9.83,0,0,1,16,23Z" fill="#fff"/><path id="Shape" d="M45.83,9H43.57a.19.19,0,0,0-.17.18h0V15a3,3,0,0,1-.53,1.86,1.68,1.68,0,0,1-1.35.68,1.58,1.58,0,0,1-1.38-.68A3,3,0,0,1,39.61,15V9.18A.19.19,0,0,0,39.44,9H37.18a.19.19,0,0,0-.18.18h0v5.89a5.07,5.07,0,0,0,1.26,3.64,4.69,4.69,0,0,0,6.46,0A4.94,4.94,0,0,0,46,15.07V9.18C46,9.06,46,9,45.83,9Z" fill="#fff"/><path d="M53.56,9a5.41,5.41,0,0,0-3.94,1.59A5.23,5.23,0,0,0,48,14.53a5.3,5.3,0,0,0,1.59,3.91A5.7,5.7,0,0,0,57.87,18a.18.18,0,0,0,0-.24L56.4,16.2a.23.23,0,0,0-.15-.06.16.16,0,0,0-.15.09,3.19,3.19,0,0,1-2.63,1.26,2.56,2.56,0,0,1-2-.81,3.08,3.08,0,0,1-.81-2.18,2.79,2.79,0,0,1,.87-2.15,3,3,0,0,1,2.09-.81,3.19,3.19,0,0,1,2.57,1.29.23.23,0,0,0,.15.06c.06,0,.09,0,.15-.06L58,11.21A.21.21,0,0,0,58,11,5.71,5.71,0,0,0,53.56,9Z" fill="#fff"/><path d="M60.59,10.59A5.34,5.34,0,0,1,64.49,9a5.43,5.43,0,0,1,3.92,1.59A5.26,5.26,0,0,1,70,14.51a5.41,5.41,0,0,1-1.59,3.92,5.66,5.66,0,0,1-7.82,0A5.29,5.29,0,0,1,59,14.51,5.38,5.38,0,0,1,60.59,10.59Zm5.9,6.1a3.08,3.08,0,0,0,.83-2.21,3.27,3.27,0,0,0-.86-2.22,1.39,1.39,0,0,0-.21-.21,2.64,2.64,0,0,0-3.77.21,3.41,3.41,0,0,0,0,4.43l.21.21A2.66,2.66,0,0,0,66.49,16.69Z" fill="#fff" fill-rule="evenodd"/><path d="M82.84,9H79.72a.19.19,0,0,0-.18.12L77,14.64,74.51,9.12A.2.2,0,0,0,74.33,9H71.18a.2.2,0,0,0-.18.19h0V19.81a.2.2,0,0,0,.18.19h2.33a.2.2,0,0,0,.19-.19h0V13.93L76.15,19a.16.16,0,0,0,.15.09h1.39a.19.19,0,0,0,.16-.09l2.45-5.08v5.88a.2.2,0,0,0,.18.19h2.33a.2.2,0,0,0,.18-.19h0V9.22A.15.15,0,0,0,82.84,9Z" fill="#fff"/><path d="M97.84,9H94.72a.16.16,0,0,0-.15.09l-2.51,5.49L89.51,9.12A.2.2,0,0,0,89.33,9H86.18a.2.2,0,0,0-.18.19h0V19.81a.2.2,0,0,0,.18.19h2.33a.2.2,0,0,0,.19-.19h0V13.93L91.15,19a.16.16,0,0,0,.15.09h1.39a.19.19,0,0,0,.16-.09l2.45-5.08v5.88a.2.2,0,0,0,.18.19h2.33a.2.2,0,0,0,.18-.19h0V9.22A.14.14,0,0,0,97.84,9Z" fill="#fff"/><path d="M107.79,17.49h-5.13V15.66h4.46a.2.2,0,0,0,.19-.18h0v-2a.2.2,0,0,0-.19-.18h-4.46v-1.8h5a.2.2,0,0,0,.18-.19h0V9.19a.2.2,0,0,0-.18-.19h-7.46a.2.2,0,0,0-.18.19h0V19.81a.2.2,0,0,0,.18.19h7.64a.2.2,0,0,0,.18-.19h0v-2.1a.21.21,0,0,0-.21-.22Z" fill="#fff"/><path d="M118.37,12.71a3.38,3.38,0,0,1-1.79,3.37L119,19.69a.18.18,0,0,1,0,.12.19.19,0,0,1-.17.19h-2.71a.16.16,0,0,1-.15-.09l-2.13-3.31h-1.27v3.18a.2.2,0,0,1-.18.19h-2.22a.19.19,0,0,1-.17-.19V9.19a.19.19,0,0,1,.17-.19h3.75a5.13,5.13,0,0,1,3.41.87A3.58,3.58,0,0,1,118.37,12.71Zm-3,1.11a1.54,1.54,0,0,0,.35-1.11c0-.5-.09-.84-.35-1a2.45,2.45,0,0,0-1.38-.28h-1.47v2.75H114A2.15,2.15,0,0,0,115.42,13.82Z" fill="#fff" fill-rule="evenodd"/><path d="M125.56,9a5.41,5.41,0,0,0-3.94,1.59A5.23,5.23,0,0,0,120,14.53a5.3,5.3,0,0,0,1.59,3.91,5.7,5.7,0,0,0,8.28-.47.18.18,0,0,0,0-.24l-1.47-1.5a.23.23,0,0,0-.15-.06c-.06,0-.09,0-.15.06a3.19,3.19,0,0,1-2.63,1.26,2.56,2.56,0,0,1-2-.81,2.89,2.89,0,0,1-.81-2.15,2.79,2.79,0,0,1,.87-2.15,3,3,0,0,1,2.09-.81,3.19,3.19,0,0,1,2.57,1.29.22.22,0,0,0,.3,0L130,11.24a.21.21,0,0,0,0-.24A5.64,5.64,0,0,0,125.56,9Z" fill="#fff"/><path d="M139.79,17.49h-5.13V15.66h4.46a.2.2,0,0,0,.19-.18h0v-2a.2.2,0,0,0-.19-.18h-4.46v-1.8h5a.2.2,0,0,0,.18-.19h0V9.19a.2.2,0,0,0-.18-.19h-7.46a.2.2,0,0,0-.18.19h0V19.81a.2.2,0,0,0,.18.19h7.64a.2.2,0,0,0,.18-.19h0v-2.1a.25.25,0,0,0-.21-.22Z" fill="#fff"/></g></g></g></svg>